<?xml version="1.0" standalone="no"?>
<!DOCTYPE svg PUBLIC "-//W3C//DTD SVG 20010904//EN"
 "http://www.w3.org/TR/2001/REC-SVG-20010904/DTD/svg10.dtd">
<svg version="1.0" xmlns="http://www.w3.org/2000/svg"
 width="894.000000pt" height="209.000000pt" viewBox="0 0 894.000000 209.000000"
 preserveAspectRatio="xMidYMid meet">

<g transform="translate(0.000000,209.000000) scale(0.100000,-0.100000)"
fill="#000000" stroke="none">
<path d="M6995 2078 c-3 -8 -4 -439 -3 -959 l3 -946 30 -48 c40 -64 97 -95
177 -95 l58 0 -2 1027 -3 1028 -128 3 c-97 2 -129 0 -132 -10z"/>
<path d="M930 2030 c-99 -17 -186 -79 -228 -163 -18 -37 -664 -1744 -686
-1814 l-7 -23 143 0 143 0 85 235 85 235 515 0 516 0 84 -235 85 -235 147 0
c82 0 148 2 148 5 0 14 -675 1795 -695 1835 -59 116 -198 183 -335 160z m107
-266 c9 -15 97 -248 194 -518 l178 -491 -421 -3 c-232 -1 -423 0 -426 2 -6 6
355 984 374 1014 22 33 78 31 101 -4z"/>
<path d="M2250 1955 l0 -85 125 0 125 0 0 -830 0 -830 -125 0 -125 0 0 -91 0
-91 158 4 c148 3 161 5 215 31 31 16 74 48 96 73 74 84 71 46 71 908 l0 771
-24 50 c-31 67 -113 140 -179 160 -35 10 -95 15 -194 15 l-143 0 0 -85z"/>
<path d="M2830 1955 l0 -85 130 0 131 0 -3 83 -3 82 -127 3 -128 3 0 -86z"/>
<path d="M5670 2025 c-208 -46 -380 -177 -468 -358 -65 -131 -76 -188 -77
-372 0 -184 12 -242 75 -370 117 -239 332 -369 605 -368 191 1 324 60 458 202
l67 71 0 -220 c0 -236 -5 -267 -53 -318 -53 -57 -51 -57 -472 -62 l-390 -5 -3
-113 -3 -112 406 0 c463 0 503 5 602 69 94 61 152 156 172 281 15 88 14 928 0
1045 -38 308 -212 526 -494 615 -91 29 -325 37 -425 15z m383 -252 c170 -80
276 -261 277 -474 1 -316 -221 -539 -515 -516 -139 11 -245 68 -327 174 -190
250 -115 671 144 804 81 42 118 49 238 46 105 -3 121 -6 183 -34z"/>
<path d="M3955 1485 c-236 -52 -393 -188 -479 -415 -20 -53 -21 -77 -24 -547
l-3 -493 130 0 131 0 0 443 c0 368 3 453 16 502 30 116 101 203 212 257 63 31
72 33 182 33 106 0 120 -2 172 -28 126 -62 209 -174 228 -308 5 -35 10 -252
10 -481 l0 -418 131 0 130 0 -3 483 -3 482 -28 80 c-95 272 -333 427 -650 424
-51 0 -119 -7 -152 -14z"/>
<path d="M8141 1489 c-274 -54 -474 -259 -538 -552 -21 -98 -21 -283 0 -367
50 -194 181 -356 357 -442 164 -81 213 -90 528 -95 l272 -5 0 116 0 116 -237
0 c-175 0 -255 4 -301 15 -182 43 -320 177 -351 338 l-8 47 527 0 527 0 11 25
c7 14 12 63 12 108 -2 361 -197 630 -502 691 -83 17 -225 19 -297 5z m307
-244 c114 -51 205 -181 218 -313 l7 -62 -407 0 -407 0 7 38 c13 75 65 182 116
238 93 101 177 136 313 130 73 -2 103 -9 153 -31z"/>
<path d="M2834 197 c-3 -8 -4 -47 -2 -88 l3 -74 125 0 125 0 0 85 0 85 -123 3
c-97 2 -124 0 -128 -11z"/>
</g>
</svg>
